<?xml version="1.0" encoding="UTF-8"?>
<!DOCTYPE svg PUBLIC "-//W3C//DTD SVG 1.1//EN" "http://www.w3.org/Graphics/SVG/1.1/DTD/svg11.dtd">
<svg xmlns="http://www.w3.org/2000/svg" version="1.1" width="49px" height="48px" style="shape-rendering:geometricPrecision; text-rendering:geometricPrecision; image-rendering:optimizeQuality; fill-rule:evenodd; clip-rule:evenodd" xmlns:xlink="http://www.w3.org/1999/xlink">
<g><path style="opacity:0.586" fill="#fefffe" d="M 22.5,4.5 C 29.2248,4.20441 30.8915,6.87107 27.5,12.5C 24.7546,13.9753 22.588,13.3087 21,10.5C 20.2516,8.15994 20.7516,6.15994 22.5,4.5 Z M 23.5,7.5 C 24.675,7.28099 25.675,7.61432 26.5,8.5C 24.9483,9.79789 23.9483,9.46455 23.5,7.5 Z"/></g>
<g><path style="opacity:0.543" fill="#fefffe" d="M 15.5,9.5 C 19.2692,10.4237 20.2692,12.5904 18.5,16C 20.0806,16.7065 21.5806,17.5399 23,18.5C 24.3333,25.1667 25.6667,25.1667 27,18.5C 28.4194,17.5399 29.9194,16.7065 31.5,16C 29.7249,12.629 30.7249,10.4623 34.5,9.5C 38.2155,10.9871 39.0488,13.3204 37,16.5C 34.4858,17.0885 32.4858,18.4219 31,20.5C 30.586,20.0426 30.086,19.7093 29.5,19.5C 28.9018,22.1875 27.5685,24.3541 25.5,26C 28.0076,26.6544 30.1742,27.821 32,29.5C 35.1138,27.8214 37.2805,28.6548 38.5,32C 34.782,37.8707 31.782,37.3707 29.5,30.5C 24.3319,27.5018 20.8319,28.8351 19,34.5C 15.76,36.8271 13.26,35.9938 11.5,32C 12.7411,28.6509 14.9078,27.8176 18,29.5C 19.8258,27.821 21.9924,26.6544 24.5,26C 22.4315,24.3541 21.0982,22.1875 20.5,19.5C 19.914,19.7093 19.414,20.0426 19,20.5C 17.5142,18.4219 15.5142,17.0885 13,16.5C 11.0331,13.2664 11.8665,10.933 15.5,9.5 Z"/></g>
<g><path style="opacity:0.625" fill="#fefffe" d="M 8.5,18.5 C 14.6426,19.0262 15.9759,21.8595 12.5,27C 8.80303,28.1541 6.80303,26.8207 6.5,23C 6.75861,21.2134 7.42527,19.7134 8.5,18.5 Z M 9.5,21.5 C 12.6741,21.9522 13.0075,22.9522 10.5,24.5C 8.4807,23.8671 8.14737,22.8671 9.5,21.5 Z"/></g>
<g><path style="opacity:0.623" fill="#fefffe" d="M 37.5,18.5 C 42.9341,18.5903 44.6007,21.257 42.5,26.5C 35.4089,27.5305 33.7422,24.8639 37.5,18.5 Z M 38.5,21.5 C 41.6741,21.9522 42.0075,22.9522 39.5,24.5C 37.4807,23.8671 37.1474,22.8671 38.5,21.5 Z"/></g>
<g><path style="opacity:0.583" fill="#fefffe" d="M 23.5,32.5 C 29.3347,33.333 30.6681,36.1663 27.5,41C 20.0004,41.1959 18.667,38.3626 23.5,32.5 Z M 23.5,36.5 C 24.675,36.281 25.675,36.6143 26.5,37.5C 24.9483,38.7979 23.9483,38.4646 23.5,36.5 Z"/></g>
</svg>
